<?xml version="1.0" standalone="no"?>
<!DOCTYPE svg PUBLIC "-//W3C//DTD SVG 20010904//EN"
 "http://www.w3.org/TR/2001/REC-SVG-20010904/DTD/svg10.dtd">
<svg version="1.0" xmlns="http://www.w3.org/2000/svg"
 width="360.000000pt" height="360.000000pt" viewBox="0 0 360.000000 360.000000"
 preserveAspectRatio="xMidYMid meet">
<metadata>
Created by potrace 1.14, written by Peter Selinger 2001-2017
</metadata>
<g transform="translate(0.000000,360.000000) scale(0.100000,-0.100000)"
fill="#000000" stroke="none">
<path d="M879 3425 c-2 -2 -26 -6 -52 -9 -69 -8 -128 -43 -141 -84 -4 -12 -11
-22 -15 -22 -9 0 -11 -8 -16 -92 -2 -39 0 -68 6 -68 5 0 9 -9 9 -19 0 -10 13
-33 29 -50 28 -30 28 -32 10 -41 -10 -6 -19 -7 -19 -3 0 11 -61 10 -78 -1 -7
-4 -12 -3 -12 1 0 5 -17 8 -37 6 -21 -1 -55 -4 -75 -5 -21 -2 -38 -1 -38 3 0
7 -38 4 -69 -6 -12 -3 -21 -11 -21 -16 0 -6 -4 -7 -10 -4 -6 3 -10 -1 -10 -9
0 -9 -4 -16 -8 -16 -5 0 -9 -6 -9 -12 0 -7 -2 -17 -3 -23 -5 -22 1 -43 20 -66
17 -19 33 -24 84 -27 59 -4 63 -6 76 -36 7 -17 12 -34 11 -38 0 -5 3 -8 7 -8
4 0 8 -8 8 -17 1 -10 4 -34 8 -53 10 -49 14 -140 6 -135 -4 2 -6 -6 -5 -18 1
-12 -4 -38 -11 -59 -7 -20 -10 -39 -7 -42 4 -3 1 -6 -5 -6 -7 0 -12 -6 -12
-12 0 -9 -17 -13 -52 -12 -81 2 -122 -26 -134 -91 -2 -13 0 -27 6 -30 5 -3 10
-15 10 -26 0 -11 4 -18 9 -15 5 3 12 -1 15 -10 3 -8 10 -13 15 -9 5 3 12 2 15
-3 3 -5 107 -8 231 -8 218 1 273 -4 230 -20 -30 -11 -84 -70 -91 -99 -3 -14
-9 -25 -13 -25 -4 0 -8 -6 -8 -12 -2 -20 -11 -83 -13 -83 -9 0 -14 -272 -6
-355 2 -25 5 -45 6 -45 1 0 4 -13 6 -30 7 -38 49 -127 57 -118 4 3 7 0 7 -7 0
-14 37 -50 52 -50 4 0 8 -4 8 -8 0 -4 -48 -7 -107 -7 -130 1 -168 -8 -185 -47
-7 -15 -15 -28 -18 -28 -5 0 -5 -28 -1 -62 1 -3 13 -20 27 -37 17 -21 35 -31
54 -31 18 0 33 -8 43 -23 20 -31 67 -167 67 -195 0 -11 5 -24 10 -27 6 -4 7
-13 1 -24 -5 -9 -6 -23 -2 -30 16 -25 0 -223 -22 -281 -3 -8 -11 -33 -18 -55
-17 -58 -38 -97 -49 -90 -6 4 -10 1 -10 -6 0 -8 -4 -8 -13 -1 -9 7 -19 4 -38
-12 -28 -24 -60 -81 -51 -91 3 -3 7 -15 9 -27 4 -28 20 -46 54 -64 18 -9 30
-10 34 -4 4 6 12 7 18 3 17 -11 190 -11 204 -1 6 5 14 5 16 1 7 -11 218 -10
235 1 7 4 18 4 25 -1 15 -11 437 -11 455 0 6 5 18 5 25 0 16 -10 197 -11 203
-1 3 5 11 5 17 1 18 -12 207 -11 200 0 -4 6 -1 7 8 1 19 -12 319 -12 312 0 -4
5 -1 6 8 0 20 -13 319 -12 311 1 -3 6 0 6 9 -1 15 -11 219 -11 274 0 17 4 41
16 55 27 14 11 33 22 43 26 9 3 17 12 17 19 0 8 5 14 11 14 12 0 56 97 64 142
4 18 8 59 10 90 2 32 6 62 10 67 3 5 1 12 -5 16 -6 4 -8 11 -5 16 9 13 14 109
6 104 -6 -3 -6 10 1 70 1 6 -2 21 -6 34 -6 18 -5 22 5 15 11 -6 12 -5 3 7 -6
8 -11 21 -12 29 -1 44 -12 190 -16 220 -11 72 -55 143 -113 181 -20 13 -22 17
-9 22 9 4 16 1 16 -5 0 -6 5 -7 13 -2 6 5 60 9 120 8 59 0 107 2 107 6 0 4 11
12 25 18 14 6 25 18 25 27 0 8 4 15 9 15 11 0 4 59 -11 87 -18 35 -58 56 -108
58 -26 1 -52 5 -60 10 -8 5 -11 4 -7 -3 5 -6 0 -8 -13 -5 -11 3 -20 13 -20 22
0 10 -3 21 -7 25 -5 4 -9 12 -9 17 -1 5 -2 10 -4 12 -8 10 -21 103 -22 157 -1
77 25 200 42 200 5 0 7 6 4 14 -3 8 0 17 5 21 6 3 9 10 6 15 -6 10 14 16 73
24 17 2 32 0 32 -5 0 -19 73 36 85 65 22 52 -1 119 -47 135 -20 7 -168 11
-407 11 l-376 1 25 22 c32 28 68 86 74 118 3 13 5 26 6 29 2 3 2 9 1 14 -1 4
4 14 10 22 8 10 8 14 0 14 -7 0 -8 8 -3 23 5 12 7 72 6 132 -3 110 -6 139 -19
205 -4 19 -8 41 -8 48 0 6 -3 12 -6 12 -4 0 -14 15 -24 33 -10 18 -35 42 -55
52 -20 11 -39 23 -42 27 -3 4 -17 8 -30 10 -14 2 -29 6 -35 9 -5 3 -79 5 -163
5 -158 -1 -172 5 -85 36 18 7 33 16 33 20 0 4 6 8 13 8 14 0 144 65 164 82 12
9 9 16 -14 34 -15 13 -32 23 -37 24 -4 0 -28 14 -53 30 -24 17 -48 30 -54 30
-5 0 -9 5 -9 10 0 6 -4 10 -10 10 -5 0 -34 16 -64 35 -30 19 -60 35 -66 35 -5
0 -10 4 -10 10 0 5 -3 9 -7 9 -5 -1 -10 -1 -13 0 -17 7 -1090 5 -1090 -2 0 -4
-8 -3 -19 2 -10 6 -20 9 -22 6z"/>
</g>
</svg>
